<?xml version="1.0" encoding="iso-8859-1"?>
<!-- Generator: Adobe Illustrator 19.0.0, SVG Export Plug-In . SVG Version: 6.00 Build 0)  -->
<svg version="1.1" id="Capa_1" xmlns="http://www.w3.org/2000/svg" xmlns:xlink="http://www.w3.org/1999/xlink" x="0px" y="0px"
	 width="15px" height="15px" viewBox="0 0 72.333 72.333" style="enable-background:new 0 0 72.333 72.333;" xml:space="preserve">
	<g>
		<path d="M63.167,0h-10h-40c-6.065,0-11,4.935-11,11v50.333c0,6.065,4.935,11,11,11h40h10c3.859,0,7-3.141,7-7V7
			C70.167,3.14,67.025,0,63.167,0z M13.167,66.333c-2.757,0-5-2.243-5-5V11c0-2.757,2.243-5,5-5h40c0.552,0,1,0.449,1,1v58.333
			c0,0.552-0.448,1-1,1H13.167z M64.167,65.333c0,0.552-0.448,1-1,1h-3.08c0.047-0.327,0.08-0.659,0.08-1V7
			c0-0.34-0.032-0.672-0.08-1h3.08c0.552,0,1,0.449,1,1V65.333z"/>
		<path d="M47.972,47.629c0-5.096-4.074-9.247-8.641-11.478c2.566-2.409,3.98-6.213,3.98-11.124c0-6.696-5.448-12.145-12.145-12.145
			S19.02,18.33,19.02,25.027c0,4.04,1.363,8.251,4.223,11.004c-4.664,2.2-8.882,6.412-8.882,11.598c0,1.128-0.075,2.23-0.147,3.298
			c-0.21,3.098-0.409,6.023,1.54,8.108c1.15,1.23,2.805,1.854,4.919,1.854h20.986c2.114,0,3.77-0.624,4.919-1.854
			c1.948-2.085,1.75-5.011,1.54-8.108C48.046,49.859,47.972,48.757,47.972,47.629z M31.167,18.882c3.388,0,6.145,2.756,6.145,6.145
			c0,8.069-4.625,8.069-6.145,8.069c-5.849,0-6.146-6.722-6.146-8.069C25.021,21.639,27.778,18.882,31.167,18.882z M42.176,54.855
			c-0.111,0.018-0.278,0.034-0.516,0.034H20.674c-0.237,0-0.404-0.017-0.516-0.034c-0.15-0.682-0.04-2.305,0.043-3.522
			c0.076-1.112,0.161-2.373,0.161-3.704c0-3.744,5.945-7.261,9.53-7.261h2.549c3.585,0,9.53,3.517,9.53,7.261
			c0,1.331,0.086,2.592,0.161,3.704C42.216,52.55,42.324,54.174,42.176,54.855z"/>
	</g>
</svg>
